<svg xmlns="http://www.w3.org/2000/svg" xmlns:xlink="http://www.w3.org/1999/xlink" viewBox="0 0 23.3 24.04">
    <path d="M12.66.36c-.64-.42-1.48-.41-2.11.02L1.11 6.95c-.5.35-.8.93-.8 1.54v7.08c0 .63.32 1.22.84 1.57l9.59 6.34c.62.41 1.44.41 2.07 0l9.79-6.46c.52-.35.84-.94.84-1.57V8.49c0-.63-.32-1.21-.84-1.56L12.66.36zm7.3 7.67l-3.61 2.43L12.96 8l-.02-4.85 7.02 4.88zm-9.48-4.88V7.9L7 10.33 3.54 8l6.94-4.85zm-7.89 7.19l2.24 1.5-2.24 1.57v-3.07zm7.95 10.11l-7-4.69 3.49-2.45 3.5 2.35v4.79zM9.21 11.8l2.27-1.58 2.64 1.73-2.34 1.57-2.57-1.72zm3.81 8.65v-4.79l3.35-2.24 3.6 2.37-6.95 4.66zm7.94-6.96l-2.37-1.56 2.37-1.59v3.15zm0 0" />
</svg>