<svg xmlns="http://www.w3.org/2000/svg" viewBox="0 0 23 22.95">
    <path d="M5.35 7.37H.74c-.2 0-.37.17-.37.37v14.83c0 .21.17.37.37.37h4.62c.2 0 .37-.17.37-.37V7.75c-.01-.21-.17-.38-.38-.38zm0 0M3.05 0C1.37 0 0 1.37 0 3.04c0 1.68 1.37 3.04 3.05 3.04 1.68 0 3.04-1.37 3.04-3.04S4.73 0 3.05 0zm0 0M17.1 7.01c-1.85 0-3.23.8-4.06 1.7v-.96c0-.2-.17-.37-.37-.37H8.25c-.21 0-.37.17-.37.37v14.83c0 .21.17.37.37.37h4.61c.21 0 .37-.17.37-.37v-7.34c0-2.47.67-3.44 2.4-3.44 1.88 0 2.03 1.54 2.03 3.56v7.21c0 .2.17.37.37.37h4.61c.2 0 .37-.17.37-.37v-8.14c-.01-3.67-.71-7.42-5.91-7.42zm0 0"/>
</svg>