<svg xmlns="http://www.w3.org/2000/svg" viewBox="0 0 23 30.46">
    <path d="M18.16 19.03c-.53 0-.95.43-.95.95v8.57H1.98v-8.57c0-.53-.43-.95-.95-.95-.53 0-.95.43-.95.95v9.52c0 .53.43.95.95.95h17.13c.53 0 .95-.43.95-.95v-9.52c0-.52-.42-.95-.95-.95zm0 0"/>
    <path d="M14.35 24.74H4.84c-.53 0-.95.43-.95.95 0 .53.43.95.95.95h9.52c.53 0 .95-.43.95-.95s-.43-.95-.96-.95zm.1-3.8l-9.52-.95c-.53-.05-.99.33-1.04.85-.05.52.33.99.85 1.04l9.52.95c.03 0 .06.01.1.01.48 0 .9-.37.94-.86.05-.52-.33-.98-.85-1.04zm1.13-3.77l-9.52-2.86c-.51-.15-1.04.14-1.19.64-.15.5.14 1.03.64 1.19L15.03 19c.09.03.18.04.27.04.41 0 .79-.27.91-.68.16-.51-.13-1.04-.63-1.19zm1.14-3.73L8.15 8.69c-.45-.26-1.03-.09-1.29.36-.26.46-.09 1.04.37 1.29l8.57 4.76c.15.08.3.12.46.12.33 0 .66-.18.83-.49.25-.45.09-1.03-.37-1.29zm0 0"/>
    <path d="M18.97 11.87l-4.76-7.61c-.28-.45-.87-.58-1.31-.3-.45.28-.58.87-.3 1.31l4.76 7.61c.18.29.49.45.81.45.17 0 .35-.05.5-.14.44-.29.58-.88.3-1.32zm3.93-1.59L21 .77c-.1-.52-.63-.85-1.12-.75-.52.1-.85.6-.75 1.12l1.9 9.52c.09.45.49.77.93.77.06 0 .13-.01.19-.02.52-.11.86-.61.75-1.13zm0 0" />
</svg>